<svg version="1.1" viewBox="0.0 0.0 720.0 540.0" fill="none" stroke="none" stroke-linecap="square" stroke-miterlimit="10" xmlns:xlink="http://www.w3.org/1999/xlink" xmlns="http://www.w3.org/2000/svg"><clipPath id="p.0"><path d="m0 0l720.0 0l0 540.0l-720.0 0l0 -540.0z" clip-rule="nonzero"/></clipPath><g clip-path="url(#p.0)"><path fill="#000000" fill-opacity="0.0" d="m0 0l720.0 0l0 540.0l-720.0 0z" fill-rule="evenodd"/><path fill="#ffffff" d="m163.30708 148.85686l0 0c0 -33.453766 27.119629 -60.573395 60.573395 -60.573395l272.23907 0c16.065033 0 31.472137 6.3818207 42.831818 17.741539c11.359741 11.359711 17.741577 26.766792 17.741577 42.831856l0 242.2863c0 33.453735 -27.119629 60.573364 -60.573395 60.573364l-272.23907 0c-33.453766 0 -60.573395 -27.119629 -60.573395 -60.573364z" fill-rule="evenodd"/><path stroke="#6aa84f" stroke-width="16.0" stroke-linejoin="round" stroke-linecap="butt" d="m163.30708 148.85686l0 0c0 -33.453766 27.119629 -60.573395 60.573395 -60.573395l272.23907 0c16.065033 0 31.472137 6.3818207 42.831818 17.741539c11.359741 11.359711 17.741577 26.766792 17.741577 42.831856l0 242.2863c0 33.453735 -27.119629 60.573364 -60.573395 60.573364l-272.23907 0c-33.453766 0 -60.573395 -27.119629 -60.573395 -60.573364z" fill-rule="evenodd"/><path fill="#000000" fill-opacity="0.0" d="m267.7638 98.708664l184.47241 0l0 342.5827l-184.47241 0z" fill-rule="evenodd"/><path fill="#000000" d="m345.21692 356.3024q-7.046875 -18.8125 -25.984375 -55.765625q-18.9375 -36.96875 -25.21875 -49.281235q-14.390625 -29.5625 -14.390625 -35.796875q0 -7.171875 21.375 -15.546875q11.53125 21.375 19.46875 38.1875q7.953125 16.796875 15.71875 31.57811q18.203125 35.65625 25.609375 44.515625q-0.765625 0.625 13.40625 -29.734375l21.359375 -45.07811q17.15625 -36.375 22.390625 -48.234375q11.28125 -13.53125 20.125 -13.53125q11.796875 0 11.796875 17.6875l-75.125 164.81248q-7.171875 4.640625 -16.53125 4.640625q-9.359375 0 -14.0 -8.453125z" fill-rule="nonzero"/></g></svg>